<svg width="16" height="16" viewBox="0 0 16 16" fill="none" xmlns="http://www.w3.org/2000/svg">
<path id="Vector" d="M16 8C16 8.21216 15.9298 8.41563 15.8047 8.56565C15.6797 8.71567 15.5102 8.79995 15.3334 8.79995H2.27628L7.13862 14.6336C7.20056 14.708 7.24969 14.7962 7.28322 14.8933C7.31674 14.9904 7.33399 15.0945 7.33399 15.1996C7.33399 15.3047 7.31674 15.4088 7.28322 15.5059C7.24969 15.603 7.20056 15.6912 7.13862 15.7656C7.07669 15.8399 7.00315 15.8988 6.92223 15.9391C6.8413 15.9793 6.75457 16 6.66697 16C6.57938 16 6.49264 15.9793 6.41172 15.9391C6.33079 15.8988 6.25726 15.8399 6.19532 15.7656L0.195518 8.56597C0.133536 8.49167 0.0843647 8.40345 0.0508163 8.30633C0.0172679 8.20922 0 8.10513 0 8C0 7.89487 0.0172679 7.79078 0.0508163 7.69366C0.0843647 7.59655 0.133536 7.50832 0.195518 7.43403L6.19532 0.234432C6.32041 0.0843276 6.49007 -1.5816e-09 6.66697 0C6.84388 1.5816e-09 7.01353 0.0843276 7.13862 0.234432C7.26371 0.384536 7.33399 0.588121 7.33399 0.8004C7.33399 1.01268 7.26371 1.21626 7.13862 1.36637L2.27628 7.20004H15.3334C15.5102 7.20004 15.6797 7.28432 15.8047 7.43435C15.9298 7.58437 16 7.78784 16 8Z" fill="black"/>
</svg>
